<svg width="37" height="26" viewBox="0 0 37 26" fill="none" xmlns="http://www.w3.org/2000/svg">
<path d="M37 21.294C37 23.4322 35.1593 25.1657 32.8889 25.1657H4.11111C1.84075 25.1657 0 23.4322 0 21.294V3.87164C0 1.73353 1.84075 0 4.11111 0H32.8889C35.1593 0 37 1.73353 37 3.87164V21.294Z" fill="#CCD6DD"/>
<path d="M12.282 12.2305L0.654715 23.1805C0.626965 23.2076 0.616687 23.2415 0.593048 23.2686C0.942493 23.8203 1.42966 24.2781 2.01549 24.6082C2.0453 24.5859 2.08024 24.5762 2.10799 24.5501L13.7363 13.5992C14.1371 13.2207 14.1371 12.609 13.7363 12.2305C13.3334 11.8521 12.6838 11.8521 12.282 12.2305ZM36.407 23.2686C36.3854 23.2415 36.3731 23.2076 36.3453 23.1815L24.7191 12.2305C24.3162 11.8521 23.6667 11.8521 23.2648 12.2305C22.8629 12.6099 22.8629 13.2217 23.2648 13.5992L34.8921 24.5501C34.9188 24.5753 34.9558 24.5859 34.9846 24.6082C35.5714 24.2791 36.0575 23.8203 36.407 23.2686Z" fill="#99AAB5"/>
<path d="M32.8889 0H4.11111C1.84075 0 0 1.73353 0 3.87164V4.86859L14.9316 18.8994C16.8782 20.7317 20.0581 20.7317 22.0068 18.8994L37 4.84827V3.87164C37 1.73353 35.1593 0 32.8889 0Z" fill="#99AAB5"/>
<path d="M32.8889 0H4.11112C2.47901 0 1.0802 0.904029 0.41626 2.202L15.5924 16.4951C17.1978 18.007 19.8022 18.007 21.4066 16.4951L36.5838 2.202C35.9198 0.904029 34.522 0 32.8889 0Z" fill="#E1E8ED"/>
</svg>
