<svg width="25" height="25" viewBox="0 0 25 25" fill="none" xmlns="http://www.w3.org/2000/svg">
<path d="M25 6.69643C25 3.98393 22.9167 0 12.5 0C2.08333 0 0 3.98393 0 6.69643C0 6.73661 0.0131944 6.76429 0.0152778 6.80268C0.00694444 6.97768 0 7.16161 0 7.36607C0 9.70803 1.55486 10.7143 3.47222 10.7143C5.38958 10.7143 6.94444 9.70803 6.94444 7.36607C6.94444 7.17143 6.92986 6.99821 6.90903 6.83303C8.59306 6.51964 10.4875 6.25 12.5 6.25C14.5125 6.25 16.4069 6.51964 18.091 6.83303C18.0701 6.99821 18.0556 7.17143 18.0556 7.36607C18.0556 9.70803 19.6097 10.7143 21.5278 10.7143C23.4458 10.7143 25 9.70803 25 7.36607C25 7.16518 24.9937 6.98304 24.9833 6.81161C24.9861 6.77053 25 6.74018 25 6.69643Z" fill="#BE1931"/>
<path d="M24.2597 16.9643C23.925 16.0438 22.6556 13.2232 21.5042 10.7081C20.4222 8.34466 18.75 6.25002 17.3611 6.25002V4.4643C17.3611 3.47859 16.7389 2.67859 15.9722 2.67859C15.2056 2.67859 14.5833 3.47859 14.5833 4.4643V6.25002H10.4167V4.4643C10.4167 3.47859 9.79444 2.67859 9.02778 2.67859C8.26111 2.67859 7.63889 3.47859 7.63889 4.4643V6.25002C6.25 6.25002 4.57639 8.34912 3.49306 10.7143C2.34236 13.2277 1.07431 16.0447 0.740278 16.9643C0.338889 18.0706 0 18.75 0 20.5357C0 22.3214 1.24375 25 2.77778 25H22.2222C23.7562 25 25 22.3214 25 20.5357C25 18.75 24.6889 18.1464 24.2597 16.9643Z" fill="#DD2E44"/>
<path d="M13.9208 9.65895C13.9208 10.0625 13.2847 10.3893 12.4999 10.3893C11.7152 10.3893 11.0798 10.0625 11.0798 9.65895C11.0798 9.25537 11.7152 8.92859 12.4999 8.92859C13.2847 8.92859 13.9208 9.25537 13.9208 9.65895ZM10.5111 9.65895C10.5111 10.0625 9.87564 10.3893 9.09091 10.3893C8.30619 10.3893 7.67077 10.0625 7.67077 9.65895C7.67077 9.25537 8.30689 8.92859 9.09091 8.92859C9.87494 8.92859 10.5111 9.25537 10.5111 9.65895ZM17.3291 9.65895C17.3291 10.0625 16.6937 10.3893 15.909 10.3893C15.1242 10.3893 14.4881 10.0625 14.4881 9.65895C14.4881 9.25537 15.1242 8.92859 15.909 8.92859C16.6937 8.92859 17.3291 9.25537 17.3291 9.65895ZM14.2041 12.2161C14.2041 12.8223 13.4409 13.3125 12.4999 13.3125C11.559 13.3125 10.7951 12.8223 10.7951 12.2161C10.7951 11.6116 11.5583 11.1206 12.4999 11.1206C13.4416 11.1206 14.2041 11.6107 14.2041 12.2161ZM18.1819 12.2161C18.1819 12.8223 17.418 13.3125 16.4777 13.3125C15.5367 13.3125 14.7729 12.8223 14.7729 12.2161C14.7729 11.6116 15.5367 11.1206 16.4777 11.1206C17.418 11.1206 18.1819 11.6107 18.1819 12.2161ZM10.227 12.2161C10.227 12.8223 9.46383 13.3125 8.52286 13.3125C7.58189 13.3125 6.818 12.8223 6.818 12.2161C6.818 11.6116 7.58119 11.1206 8.52286 11.1206C9.46383 11.1206 10.227 11.6107 10.227 12.2161ZM14.7722 15.5027C14.7722 16.3116 13.7548 16.9643 12.4999 16.9643C11.2451 16.9643 10.227 16.3116 10.227 15.5027C10.227 14.6964 11.2451 14.042 12.4999 14.042C13.7548 14.0429 14.7722 14.6964 14.7722 15.5027ZM19.8867 15.5027C19.8867 16.3107 18.868 16.9643 17.6138 16.9643C16.359 16.9643 15.3409 16.3116 15.3409 15.5027C15.3409 14.6964 16.359 14.042 17.6138 14.042C18.868 14.0429 19.8867 14.6964 19.8867 15.5027ZM9.65897 15.5027C9.65897 16.3107 8.64091 16.9643 7.38605 16.9643C6.13119 16.9643 5.11383 16.3116 5.11383 15.5027C5.11383 14.6964 6.13119 14.042 7.38605 14.042C8.64091 14.0429 9.65897 14.6964 9.65897 15.5027Z" fill="white"/>
</svg>
